<svg width="489" height="412" viewBox="0 0 489 412" fill="none" xmlns="http://www.w3.org/2000/svg">
<rect x="24" width="442" height="376" fill="white"/>
<path d="M245.5 73L319.545 175H171.455L245.5 73Z" fill="#0D2691"/>
<path d="M42.2444 304L244.5 8.84533L446.756 304H42.2444Z" stroke="#0D2691" stroke-width="10"/>
<rect x="160" y="198" width="157" height="48" fill="#0D2691"/>
<rect x="212" y="243" width="55" height="66" fill="#0D2691"/>
<rect x="171" y="246" width="41" height="63" fill="white"/>
<rect x="171" y="246" width="41" height="63" fill="white"/>
<rect x="171" y="246" width="41" height="63" fill="white"/>
<rect x="267" y="246" width="41" height="63" fill="white"/>
<rect x="267" y="246" width="41" height="63" fill="white"/>
<rect x="267" y="246" width="41" height="63" fill="white"/>
<rect x="160" y="246" width="11" height="63" fill="#0D2691"/>
<rect x="305" y="246" width="12" height="63" fill="#0D2691"/>
<path d="M156 198V246H121L156 198Z" fill="#0D2691"/>
<path d="M321 198V246H356L321 198Z" fill="#0D2691"/>
<path d="M85.7869 333.455C85.7869 337.366 85.0806 340.747 83.668 343.597C82.2553 346.446 80.3175 348.643 77.8544 350.189C75.3913 351.734 72.5781 352.507 69.4148 352.507C66.2514 352.507 63.4382 351.734 60.9751 350.189C58.5121 348.643 56.5742 346.446 55.1616 343.597C53.7489 340.747 53.0426 337.366 53.0426 333.455C53.0426 329.543 53.7489 326.162 55.1616 323.312C56.5742 320.463 58.5121 318.266 60.9751 316.72C63.4382 315.175 66.2514 314.402 69.4148 314.402C72.5781 314.402 75.3913 315.175 77.8544 316.72C80.3175 318.266 82.2553 320.463 83.668 323.312C85.0806 326.162 85.7869 329.543 85.7869 333.455ZM81.4403 333.455C81.4403 330.243 80.9031 327.532 79.8285 325.323C78.766 323.113 77.3232 321.441 75.5 320.306C73.6889 319.171 71.6605 318.604 69.4148 318.604C67.169 318.604 65.1346 319.171 63.3114 320.306C61.5004 321.441 60.0575 323.113 58.983 325.323C57.9205 327.532 57.3892 330.243 57.3892 333.455C57.3892 336.666 57.9205 339.377 58.983 341.586C60.0575 343.796 61.5004 345.468 63.3114 346.603C65.1346 347.738 67.169 348.305 69.4148 348.305C71.6605 348.305 73.6889 347.738 75.5 346.603C77.3232 345.468 78.766 343.796 79.8285 341.586C80.9031 339.377 81.4403 336.666 81.4403 333.455ZM97.0337 335.266V352H92.7596V324.182H96.8888V328.528H97.2511C97.9031 327.116 98.8931 325.981 100.221 325.124C101.549 324.254 103.264 323.82 105.365 323.82C107.248 323.82 108.896 324.206 110.309 324.979C111.722 325.739 112.82 326.898 113.605 328.456C114.39 330.001 114.782 331.957 114.782 334.324V352H110.508V334.614C110.508 332.428 109.941 330.726 108.806 329.506C107.671 328.275 106.113 327.659 104.133 327.659C102.769 327.659 101.549 327.955 100.475 328.547C99.4123 329.138 98.5732 330.001 97.9574 331.136C97.3416 332.271 97.0337 333.648 97.0337 335.266ZM128.895 352L120.419 324.182H124.911L130.924 345.48H131.213L137.154 324.182H141.718L147.585 345.408H147.875L153.888 324.182H158.38L149.904 352H145.702L139.617 330.629H139.182L133.097 352H128.895ZM172.216 352.652C170.453 352.652 168.854 352.32 167.417 351.656C165.98 350.98 164.839 350.008 163.994 348.74C163.149 347.46 162.726 345.915 162.726 344.104C162.726 342.51 163.04 341.218 163.668 340.228C164.296 339.226 165.135 338.441 166.185 337.874C167.236 337.306 168.395 336.884 169.663 336.606C170.942 336.316 172.228 336.087 173.52 335.918C175.21 335.7 176.581 335.537 177.631 335.429C178.694 335.308 179.467 335.109 179.949 334.831C180.445 334.553 180.692 334.07 180.692 333.382V333.237C180.692 331.45 180.203 330.062 179.225 329.072C178.259 328.082 176.792 327.587 174.824 327.587C172.784 327.587 171.184 328.033 170.025 328.927C168.866 329.82 168.051 330.774 167.58 331.788L163.523 330.339C164.247 328.649 165.213 327.333 166.421 326.391C167.64 325.437 168.968 324.773 170.405 324.399C171.854 324.013 173.279 323.82 174.679 323.82C175.573 323.82 176.599 323.928 177.758 324.146C178.929 324.351 180.058 324.779 181.145 325.431C182.244 326.083 183.155 327.067 183.88 328.384C184.604 329.7 184.966 331.462 184.966 333.672V352H180.692V348.233H180.475C180.185 348.837 179.702 349.483 179.026 350.171C178.35 350.859 177.45 351.445 176.327 351.928C175.204 352.411 173.834 352.652 172.216 352.652ZM172.868 348.812C174.559 348.812 175.983 348.48 177.142 347.816C178.313 347.152 179.195 346.295 179.786 345.245C180.39 344.194 180.692 343.089 180.692 341.93V338.018C180.511 338.236 180.112 338.435 179.497 338.616C178.893 338.785 178.193 338.936 177.396 339.069C176.611 339.19 175.844 339.298 175.096 339.395C174.359 339.479 173.762 339.552 173.303 339.612C172.192 339.757 171.154 339.993 170.188 340.319C169.234 340.632 168.461 341.109 167.87 341.749C167.29 342.377 167 343.234 167 344.321C167 345.806 167.55 346.929 168.648 347.69C169.759 348.438 171.166 348.812 172.868 348.812ZM192.767 352V324.182H196.897V328.384H197.186C197.694 327.007 198.611 325.89 199.939 325.033C201.267 324.176 202.765 323.747 204.431 323.747C204.745 323.747 205.137 323.753 205.608 323.765C206.079 323.777 206.435 323.795 206.676 323.82V328.166C206.532 328.13 206.2 328.076 205.68 328.003C205.173 327.919 204.636 327.876 204.069 327.876C202.716 327.876 201.509 328.16 200.446 328.728C199.396 329.283 198.563 330.056 197.947 331.046C197.343 332.024 197.042 333.141 197.042 334.396V352H192.767ZM221.401 352.58C219.082 352.58 217.036 351.994 215.261 350.823C213.486 349.64 212.098 347.973 211.096 345.824C210.093 343.663 209.592 341.109 209.592 338.163C209.592 335.241 210.093 332.706 211.096 330.557C212.098 328.408 213.492 326.748 215.279 325.576C217.066 324.405 219.131 323.82 221.473 323.82C223.284 323.82 224.715 324.121 225.765 324.725C226.828 325.317 227.637 325.993 228.192 326.754C228.76 327.502 229.2 328.118 229.514 328.601H229.876V314.909H234.151V352H230.021V347.726H229.514C229.2 348.233 228.754 348.873 228.174 349.646C227.594 350.406 226.767 351.088 225.693 351.692C224.618 352.284 223.188 352.58 221.401 352.58ZM221.98 348.74C223.695 348.74 225.143 348.293 226.327 347.4C227.51 346.494 228.409 345.245 229.025 343.651C229.641 342.045 229.949 340.192 229.949 338.091C229.949 336.014 229.647 334.197 229.043 332.64C228.44 331.07 227.546 329.85 226.363 328.981C225.18 328.1 223.719 327.659 221.98 327.659C220.169 327.659 218.66 328.124 217.452 329.054C216.257 329.971 215.358 331.221 214.754 332.803C214.162 334.372 213.866 336.135 213.866 338.091C213.866 340.071 214.168 341.87 214.772 343.488C215.388 345.094 216.293 346.374 217.489 347.327C218.696 348.269 220.193 348.74 221.98 348.74ZM269.014 324.182V327.804H254.598V324.182H269.014ZM258.799 317.517H263.074V344.031C263.074 345.239 263.249 346.144 263.599 346.748C263.961 347.339 264.42 347.738 264.975 347.943C265.543 348.136 266.14 348.233 266.768 348.233C267.239 348.233 267.625 348.209 267.927 348.161C268.229 348.1 268.471 348.052 268.652 348.016L269.521 351.855C269.231 351.964 268.827 352.072 268.308 352.181C267.788 352.302 267.13 352.362 266.333 352.362C265.126 352.362 263.943 352.103 262.784 351.583C261.637 351.064 260.683 350.273 259.922 349.211C259.174 348.148 258.799 346.808 258.799 345.19V317.517ZM286.445 352.58C283.934 352.58 281.731 351.982 279.835 350.787C277.952 349.591 276.479 347.919 275.416 345.77C274.366 343.621 273.84 341.109 273.84 338.236C273.84 335.338 274.366 332.809 275.416 330.647C276.479 328.486 277.952 326.808 279.835 325.613C281.731 324.417 283.934 323.82 286.445 323.82C288.957 323.82 291.154 324.417 293.038 325.613C294.933 326.808 296.406 328.486 297.457 330.647C298.519 332.809 299.051 335.338 299.051 338.236C299.051 341.109 298.519 343.621 297.457 345.77C296.406 347.919 294.933 349.591 293.038 350.787C291.154 351.982 288.957 352.58 286.445 352.58ZM286.445 348.74C288.353 348.74 289.923 348.251 291.154 347.273C292.386 346.295 293.297 345.009 293.889 343.415C294.481 341.822 294.776 340.095 294.776 338.236C294.776 336.376 294.481 334.644 293.889 333.038C293.297 331.432 292.386 330.134 291.154 329.144C289.923 328.154 288.353 327.659 286.445 327.659C284.538 327.659 282.968 328.154 281.737 329.144C280.505 330.134 279.594 331.432 279.002 333.038C278.41 334.644 278.115 336.376 278.115 338.236C278.115 340.095 278.41 341.822 279.002 343.415C279.594 345.009 280.505 346.295 281.737 347.273C282.968 348.251 284.538 348.74 286.445 348.74ZM345.853 326.5C345.455 325.281 344.93 324.188 344.278 323.222C343.638 322.244 342.871 321.411 341.978 320.723C341.096 320.034 340.094 319.509 338.971 319.147C337.848 318.785 336.617 318.604 335.277 318.604C333.079 318.604 331.081 319.171 329.282 320.306C327.483 321.441 326.052 323.113 324.99 325.323C323.927 327.532 323.396 330.243 323.396 333.455C323.396 336.666 323.933 339.377 325.008 341.586C326.082 343.796 327.537 345.468 329.373 346.603C331.208 347.738 333.272 348.305 335.566 348.305C337.691 348.305 339.563 347.853 341.181 346.947C342.811 346.029 344.079 344.738 344.984 343.071C345.902 341.393 346.361 339.419 346.361 337.149L347.737 337.439H336.581V333.455H350.707V337.439C350.707 340.494 350.055 343.15 348.751 345.408C347.459 347.665 345.672 349.416 343.39 350.66C341.12 351.891 338.513 352.507 335.566 352.507C332.282 352.507 329.397 351.734 326.91 350.189C324.434 348.643 322.503 346.446 321.114 343.597C319.738 340.747 319.049 337.366 319.049 333.455C319.049 330.521 319.442 327.882 320.227 325.54C321.024 323.186 322.146 321.181 323.595 319.527C325.044 317.873 326.759 316.605 328.739 315.724C330.719 314.843 332.898 314.402 335.277 314.402C337.233 314.402 339.056 314.698 340.746 315.289C342.449 315.869 343.964 316.696 345.292 317.771C346.632 318.833 347.749 320.107 348.642 321.592C349.536 323.065 350.152 324.701 350.49 326.5H345.853ZM362.094 314.909V352H357.82V314.909H362.094ZM381.224 352.58C378.712 352.58 376.509 351.982 374.613 350.787C372.73 349.591 371.257 347.919 370.194 345.77C369.144 343.621 368.619 341.109 368.619 338.236C368.619 335.338 369.144 332.809 370.194 330.647C371.257 328.486 372.73 326.808 374.613 325.613C376.509 324.417 378.712 323.82 381.224 323.82C383.735 323.82 385.933 324.417 387.816 325.613C389.712 326.808 391.185 328.486 392.235 330.647C393.298 332.809 393.829 335.338 393.829 338.236C393.829 341.109 393.298 343.621 392.235 345.77C391.185 347.919 389.712 349.591 387.816 350.787C385.933 351.982 383.735 352.58 381.224 352.58ZM381.224 348.74C383.131 348.74 384.701 348.251 385.933 347.273C387.164 346.295 388.076 345.009 388.667 343.415C389.259 341.822 389.555 340.095 389.555 338.236C389.555 336.376 389.259 334.644 388.667 333.038C388.076 331.432 387.164 330.134 385.933 329.144C384.701 328.154 383.131 327.659 381.224 327.659C379.316 327.659 377.747 328.154 376.515 329.144C375.283 330.134 374.372 331.432 373.78 333.038C373.189 334.644 372.893 336.376 372.893 338.236C372.893 340.095 373.189 341.822 373.78 343.415C374.372 345.009 375.283 346.295 376.515 347.273C377.747 348.251 379.316 348.74 381.224 348.74ZM400.353 352V324.182H404.483V328.384H404.772C405.279 327.007 406.197 325.89 407.525 325.033C408.853 324.176 410.35 323.747 412.017 323.747C412.331 323.747 412.723 323.753 413.194 323.765C413.665 323.777 414.021 323.795 414.262 323.82V328.166C414.118 328.13 413.786 328.076 413.266 328.003C412.759 327.919 412.222 327.876 411.654 327.876C410.302 327.876 409.095 328.16 408.032 328.728C406.982 329.283 406.149 330.056 405.533 331.046C404.929 332.024 404.627 333.141 404.627 334.396V352H400.353ZM422.928 362.432C422.204 362.432 421.558 362.371 420.991 362.251C420.423 362.142 420.031 362.033 419.813 361.925L420.9 358.158C421.938 358.423 422.856 358.52 423.653 358.447C424.45 358.375 425.156 358.019 425.772 357.379C426.4 356.751 426.973 355.731 427.492 354.318L428.289 352.145L418.002 324.182H422.639L430.318 346.349H430.607L438.286 324.182H442.923L431.115 356.057C430.583 357.494 429.925 358.683 429.14 359.625C428.356 360.578 427.444 361.285 426.406 361.744C425.379 362.202 424.22 362.432 422.928 362.432Z" fill="#0D2691"/>
</svg>
